<svg width="1024" height="1024" viewBox="0 0 221.42857 257.14285" xmlns="http://www.w3.org/2000/svg">
  <g transform="translate(64.21429, 74.57143)">
    <path fill="#e45c51" d="M46.501,107.615C72.182,107.615 92.909,87.728 93.001,64.256C93.098,39.503 76.06,32 65.769,32C57.254,32 53.046,36.018 46.501,36.018C39.353,36.018 34.664,32 27.077,32C22.669,32 18.604,32.514 14.506,34.952C4.665,40.808 -0.073,51.307 0.001,64.256C0.134,87.727 20.82,107.615 46.501,107.615Z"/>
    <path fill="#e45c51" d="M46.501,36.018C39.353,36.018 34.664,32 27.077,32C22.669,32 18.604,32.514 14.506,34.952C4.665,40.808 -0.073,51.307 0.001,64.256C0.134,87.727 20.82,107.615 46.501,107.615L46.501,107.615"/>
    <path fill="#8cc084" d="M31,19.593C32.282,22.459 33.742,24.572 35.38,25.932C36.841,27.145 38.994,28.031 41.839,28.591L41.839,28.591C42.476,28.717 43.123,28.78 43.771,28.78L48.616,28.78C49.562,28.78 50.503,28.645 51.411,28.381C54.075,27.605 56.254,26.578 57.949,25.299C59.508,24.122 61.047,22.22 62.565,19.593C58.722,18.251 55.742,17.996 53.626,18.826C51.776,19.551 49.703,21.453 47.407,24.531L47.407,24.531C47.077,24.974 46.45,25.065 46.007,24.735C45.888,24.646 45.791,24.532 45.721,24.401C44.651,22.379 43.062,20.776 40.954,19.593C38.339,18.124 35.021,18.124 31,19.593Z"/>
    <path fill="#8cc084" d="M46.782,28.78C47.728,28.78 50.452,28.563 51.36,28.299C54.024,27.523 56.427,26.582 58.167,24.949C59.532,23.667 61.264,21.87 62.782,19.243C58.939,17.902 55.96,17.646 53.844,18.476C51.994,19.202 49.92,21.103 47.624,24.181L46.782,24.949L46.782,28.78Z"/>
    <path fill="#8cc084" d="M47.299,0C43.798,2.818 42.048,6.124 42.048,9.919C42.048,13.714 43.798,16.732 47.299,18.973C50.902,16.708 52.703,13.69 52.703,9.919C52.703,6.148 50.902,2.841 47.299,0Z"/>
    <path fill="#8cc084" d="M47.299,18.973C50.902,16.708 52.703,13.69 52.703,9.919C52.703,6.148 50.902,2.841 47.299,0L47.299,0"/>
  </g>
</svg>