<?xml version="1.0" encoding="UTF-8" standalone="no"?>
<svg
   width="1024"
   height="1024"
   viewBox="0 0 221.42857 257.14285"
   version="1.1"
   id="svg6"
   sodipodi:docname="ic_launcher_foreground.svg"
   inkscape:version="1.4 (e7c3feb1, 2024-10-09)"
   xmlns:inkscape="http://www.inkscape.org/namespaces/inkscape"
   xmlns:sodipodi="http://sodipodi.sourceforge.net/DTD/sodipodi-0.dtd"
   xmlns="http://www.w3.org/2000/svg"
   xmlns:svg="http://www.w3.org/2000/svg">
  <defs
     id="defs6" />
  <sodipodi:namedview
     id="namedview6"
     pagecolor="#ffffff"
     bordercolor="#000000"
     borderopacity="0.25"
     inkscape:showpageshadow="2"
     inkscape:pageopacity="0.0"
     inkscape:pagecheckerboard="0"
     inkscape:deskcolor="#d1d1d1"
     inkscape:zoom="0.56692839"
     inkscape:cx="534.45904"
     inkscape:cy="494.77149"
     inkscape:window-width="1920"
     inkscape:window-height="972"
     inkscape:window-x="0"
     inkscape:window-y="25"
     inkscape:window-maximized="1"
     inkscape:current-layer="svg6" />
  <g
     transform="matrix(2.38297,0,0,2.38297,0.87346422,0.60021286)"
     id="g6">
    <path
       fill="#e45c51"
       d="m 46.501,107.615 c 25.681,0 46.408,-19.887 46.5,-43.359 C 93.098,39.503 76.06,32 65.769,32 57.254,32 53.046,36.018 46.501,36.018 39.353,36.018 34.664,32 27.077,32 22.669,32 18.604,32.514 14.506,34.952 4.665,40.808 -0.073,51.307 0.001,64.256 c 0.133,23.471 20.819,43.359 46.5,43.359 z"
       id="path1" />
    <path
       fill="#e45c51"
       d="M 46.501,36.018 C 39.353,36.018 34.664,32 27.077,32 22.669,32 18.604,32.514 14.506,34.952 4.665,40.808 -0.073,51.307 0.001,64.256 c 0.133,23.471 20.819,43.359 46.5,43.359 v 0"
       id="path2" />
    <path
       fill="#8cc084"
       d="m 31,19.593 c 1.282,2.866 2.742,4.979 4.38,6.339 1.461,1.213 3.614,2.099 6.459,2.659 v 0 c 0.637,0.126 1.284,0.189 1.932,0.189 h 4.845 c 0.946,0 1.887,-0.135 2.795,-0.399 2.664,-0.776 4.843,-1.803 6.538,-3.082 1.559,-1.177 3.098,-3.079 4.616,-5.706 -3.843,-1.342 -6.823,-1.597 -8.939,-0.767 -1.85,0.725 -3.923,2.627 -6.219,5.705 v 0 c -0.33,0.443 -0.957,0.534 -1.4,0.204 -0.119,-0.089 -0.216,-0.203 -0.286,-0.334 -1.07,-2.022 -2.659,-3.625 -4.767,-4.808 -2.615,-1.469 -5.933,-1.469 -9.954,0 z"
       id="path3" />
    <path
       fill="#8cc084"
       d="m 46.782,28.78 c 0.946,0 3.67,-0.217 4.578,-0.481 2.664,-0.776 5.067,-1.717 6.807,-3.35 1.365,-1.282 3.097,-3.079 4.615,-5.706 -3.843,-1.341 -6.822,-1.597 -8.938,-0.767 -1.85,0.726 -3.924,2.627 -6.22,5.705 l -0.842,0.768 z"
       id="path4" />
    <path
       fill="#8cc084"
       d="m 47.299,0 c -3.501,2.818 -5.251,6.124 -5.251,9.919 0,3.795 1.75,6.813 5.251,9.054 3.603,-2.265 5.404,-5.283 5.404,-9.054 0,-3.771 -1.801,-7.078 -5.404,-9.919 z"
       id="path5" />
    <path
       fill="#8cc084"
       d="M 47.299,18.973 C 50.902,16.708 52.703,13.69 52.703,9.919 52.703,6.148 50.902,2.841 47.299,0 v 0"
       id="path6" />
  </g>
</svg>
