<?xml version="1.0" encoding="iso-8859-1"?>
<!-- Uploaded to: SVG Repo, www.svgrepo.com, Generator: SVG Repo Mixer Tools -->
<svg height="800px" width="800px" version="1.1" id="Layer_1" xmlns="http://www.w3.org/2000/svg" xmlns:xlink="http://www.w3.org/1999/xlink" 
	 viewBox="0 0 512 512" xml:space="preserve">
<g>
	<path style="fill:#D2D5D7;" d="M343.31,225.082c19.747,0.591,36.273-15.501,36.273-35.293c0-10.134-4.29-19.527-11.502-26.094
		C363.993,184.81,355.351,206.208,343.31,225.082 M344.272,242.754c-6.285,0-12.641-1.218-18.891-3.61
		c-2.595-0.998-4.573-3.143-5.332-5.809c-0.768-2.666-0.23-5.535,1.439-7.751c17.117-22.687,28.425-50.882,31.038-77.374
		c0.274-2.79,1.854-5.288,4.255-6.718c2.41-1.439,5.358-1.642,7.945-0.565c19.747,8.271,32.512,27.454,32.512,48.861
		C397.238,218.999,373.483,242.754,344.272,242.754"/>
	<path style="fill:#687492;" d="M484.122,436.961c0-25.759,7.009-49.832,19.05-70.621H176.552H70.621
		C31.779,366.341,0,398.12,0,436.961s31.779,70.621,70.621,70.621h105.931h326.621C491.132,486.793,484.122,462.72,484.122,436.961"
		/>
	<g>
		<path style="fill:#38454F;" d="M441.379,445.789H176.552c-4.882,0-8.828-3.946-8.828-8.828c0-4.882,3.946-8.828,8.828-8.828
			h264.828c4.882,0,8.828,3.946,8.828,8.828C450.207,441.843,446.261,445.789,441.379,445.789"/>
		<path style="fill:#38454F;" d="M185.379,481.099H70.621c-24.338,0-44.138-19.8-44.138-44.138s19.8-44.138,44.138-44.138h203.034
			c4.882,0,8.828,3.946,8.828,8.828c0,4.882-3.946,8.828-8.828,8.828H70.621c-14.601,0-26.483,11.882-26.483,26.483
			c0,14.601,11.882,26.483,26.483,26.483h114.759c4.882,0,8.828,3.946,8.828,8.828S190.261,481.099,185.379,481.099"/>
		<path style="fill:#38454F;" d="M441.379,410.479H317.793c-4.882,0-8.828-3.946-8.828-8.828c0-4.882,3.946-8.828,8.828-8.828
			h123.586c4.882,0,8.828,3.946,8.828,8.828C450.207,406.533,446.261,410.479,441.379,410.479"/>
		<path style="fill:#38454F;" d="M317.793,481.099h-88.276c-4.882,0-8.828-3.946-8.828-8.828s3.946-8.828,8.828-8.828h88.276
			c4.882,0,8.828,3.946,8.828,8.828S322.675,481.099,317.793,481.099"/>
		<path style="fill:#38454F;" d="M441.379,481.099h-79.448c-4.882,0-8.828-3.946-8.828-8.828s3.946-8.828,8.828-8.828h79.448
			c4.882,0,8.828,3.946,8.828,8.828S446.261,481.099,441.379,481.099"/>
		<path style="fill:#38454F;" d="M132.414,445.789H79.448c-4.882,0-8.828-3.946-8.828-8.828c0-4.882,3.946-8.828,8.828-8.828h52.966
			c4.882,0,8.828,3.946,8.828,8.828C141.241,441.843,137.295,445.789,132.414,445.789"/>
	</g>
	<path style="fill:#E6E6E6;" d="M370.759,136.823c0,63.382-51.377,141.241-114.759,141.241s-114.759-77.859-114.759-141.241H370.759
		z"/>
	<path style="fill:#D2D5D7;" d="M256,251.582c-32.477,0-59.215-29.855-73.41-57.785c-2.207-4.343-0.477-9.666,3.866-11.873
		c4.343-2.198,9.657-0.468,11.873,3.875c14.857,29.237,37.5,48.128,57.671,48.128c4.882,0,8.828,3.946,8.828,8.828
		C264.828,247.636,260.882,251.582,256,251.582"/>
	<polygon style="fill:#ED7161;" points="0,366.338 512,366.338 512,278.062 0,278.062 	"/>
	<g>
		<polygon style="fill:#D36259;" points="70.621,366.338 123.586,366.338 123.586,278.062 70.621,278.062 		"/>
		<path style="fill:#D36259;" d="M353.103,331.03H185.379c-4.882,0-8.828-3.946-8.828-8.828c0-4.882,3.946-8.828,8.828-8.828
			h167.724c4.882,0,8.828,3.946,8.828,8.828C361.931,327.084,357.985,331.03,353.103,331.03"/>
		<polygon style="fill:#D36259;" points="423.724,366.338 459.034,366.338 459.034,278.062 423.724,278.062 		"/>
	</g>
	<g>
		<path style="fill:#D2D5D7;" d="M256,92.685c-2.375,0-4.732-0.945-6.462-2.816c-7.654-8.236-11.343-16.825-10.982-25.521
			c0.344-8.06,4.317-15.775,11.494-22.325c2.481-2.525,5.826-6.903,5.764-11.546c-0.053-3.522-2.039-7.168-5.897-10.84
			c-3.54-3.372-3.672-8.96-0.318-12.482c3.381-3.531,8.969-3.655,12.482-0.318c7.327,6.974,11.255,15.051,11.388,23.375
			c0.124,8.519-3.743,17.011-11.193,24.541c-4.008,3.672-5.941,7.036-6.082,10.328c-0.194,4.758,3.302,9.569,6.268,12.765
			c3.319,3.584,3.116,9.154-0.45,12.473C260.308,91.9,258.154,92.685,256,92.685"/>
		<path style="fill:#D2D5D7;" d="M317.793,92.685c-2.375,0-4.732-0.945-6.462-2.816c-7.654-8.236-11.343-16.825-10.982-25.521
			c0.344-8.06,4.317-15.775,11.494-22.325c2.481-2.525,5.826-6.903,5.764-11.546c-0.053-3.522-2.039-7.168-5.897-10.84
			c-3.54-3.372-3.672-8.96-0.318-12.482c3.381-3.531,8.969-3.655,12.482-0.318c7.327,6.974,11.255,15.051,11.388,23.375
			c0.124,8.519-3.743,17.011-11.193,24.541c-4.008,3.672-5.941,7.036-6.082,10.328c-0.194,4.758,3.302,9.569,6.268,12.765
			c3.319,3.584,3.116,9.154-0.45,12.473C322.101,91.9,319.947,92.685,317.793,92.685"/>
		<path style="fill:#D2D5D7;" d="M194.207,92.685c-2.375,0-4.732-0.945-6.462-2.816c-7.654-8.236-11.343-16.825-10.982-25.521
			c0.344-8.06,4.317-15.775,11.494-22.325c2.481-2.525,5.826-6.903,5.764-11.546c-0.053-3.522-2.039-7.168-5.897-10.84
			c-3.54-3.372-3.672-8.96-0.318-12.482c3.39-3.531,8.969-3.655,12.482-0.318c7.327,6.974,11.255,15.051,11.388,23.375
			c0.124,8.519-3.743,17.011-11.193,24.541c-4.008,3.672-5.941,7.036-6.082,10.328c-0.194,4.758,3.302,9.569,6.268,12.765
			c3.319,3.584,3.116,9.154-0.45,12.473C198.515,91.9,196.361,92.685,194.207,92.685"/>
	</g>
</g>
</svg>